<svg xmlns="http://www.w3.org/2000/svg" width="125.812" height="156.662" viewBox="0 0 125.812 156.662"><defs><style>.a{fill:#fff;}</style></defs><g transform="translate(-1660.537 -1772.338)"><path class="a" d="M1742.026,1834.88v-22.031a6.4,6.4,0,0,0-6.4-6.386h0a6.4,6.4,0,0,0-6.391,6.386v22.031Z"/><path class="a" d="M1717.708,1834.88v-22.031a6.4,6.4,0,0,0-6.408-6.386h0a6.4,6.4,0,0,0-6.4,6.386v22.031Z"/><path class="a" d="M1704.9,1834.88a18.565,18.565,0,1,0,37.126.574c0-.191,0-.383,0-.574h12.781a31.346,31.346,0,0,1-62.688,0Z"/><path class="a" d="M1723.47,1772.338a62.54,62.54,0,1,0,0,125.08,63.291,63.291,0,0,0,6.4-.324v-22.9h-12.808v9.941a49.668,49.668,0,1,1,25.608-3.439v13.69a62.537,62.537,0,0,0-19.2-122.053Z"/><path class="a" d="M1664.827,1925.68a6.31,6.31,0,0,1-4.29-1.445v-12.01l1.946-.417v6.338a3.059,3.059,0,0,1,2.89-1.879c2.659,0,4.068,2.012,4.068,4.662A4.407,4.407,0,0,1,1664.827,1925.68Zm.24-7.636c-1.618,0-2.584,1.4-2.584,3.7v1.622a3.839,3.839,0,0,0,2.278.612,2.751,2.751,0,0,0,2.69-3.041c0-1.675-.709-2.9-2.384-2.9Z"/><path class="a" d="M1672.92,1921.4a2.561,2.561,0,0,0,2.845,2.606,3.413,3.413,0,0,0,2.362-.886l1.024,1.5a5.314,5.314,0,0,1-3.372,1.094c-3.019,0-4.813-1.839-4.813-4.728s1.883-4.725,4.374-4.725a3.959,3.959,0,0,1,4.117,4.224c0,.416-.044.917-.044.917Zm.111-1.551h4.6a2.106,2.106,0,0,0-2.229-1.974l-.027,0A2.4,2.4,0,0,0,1673.031,1919.852Z"/><path class="a" d="M1686.552,1918.846a4.2,4.2,0,0,0-2.473-.886c-.589,0-1.245.239-1.245.886,0,1.706,4.574.886,4.574,4.068,0,1.707-1.33,2.779-3.435,2.779a6.006,6.006,0,0,1-3.439-1.05c.35-.483,1.006-1.423,1.006-1.423a4.6,4.6,0,0,0,2.367.789c.983,0,1.467-.443,1.467-1.05,0-1.862-4.468-.887-4.468-4.135,0-1.622,1.33-2.584,3.173-2.584a4.881,4.881,0,0,1,2.8.886Z"/><path class="a" d="M1699.981,1925.56v-5.318c0-1.551-.66-2.318-1.711-2.318s-1.772.856-1.772,2.216v5.38h-2v-5.473c0-1.529-.722-2.1-1.772-2.1s-1.773.612-1.773,2.216v5.381h-1.9v-9.126h1.923v1.029a2.568,2.568,0,0,1,2.3-1.206,2.782,2.782,0,0,1,2.535,1.511,3.035,3.035,0,0,1,2.659-1.511c1.924,0,3.479,1.139,3.479,3.94v5.38Z"/><path class="a" d="M1708.4,1916.284a6.506,6.506,0,0,1,4.291,1.49v7.786h-1.95v-1.573a3.1,3.1,0,0,1-2.784,1.693c-2.756,0-4.2-2.012-4.2-4.662A4.422,4.422,0,0,1,1708.4,1916.284Zm-.23,7.623c1.573,0,2.579-1.4,2.579-3.7v-1.6a3.611,3.611,0,0,0-2.251-.611c-1.817,0-2.734,1.422-2.734,3.062S1706.465,1923.907,1708.171,1923.907Z"/><path class="a" d="M1719.33,1918.057c-2.078,0-2.366,1.618-2.366,3.546v3.957H1715v-9.143h1.968v1.379a2.371,2.371,0,0,1,2.322-1.534,4.348,4.348,0,0,1,.523.022c-.128.634-.173,1.139-.328,1.773Z"/><path class="a" d="M1725.783,1925.68h-.984c-2.278,0-3.04-1.073-3.04-3.546v-4.077h-1.6l.443-1.64h1.162V1914.6l1.989-.443v2.278h2.274v1.64h-2.274v4.113c0,1.706.417,1.967,2.451,1.817Z"/><path class="a" d="M1728.562,1925.68a1.281,1.281,0,0,1-1.4-1.155,1.217,1.217,0,0,1-.005-.135,1.255,1.255,0,0,1,1.4-1.272,1.29,1.29,0,1,1,0,2.562Z"/><path class="a" d="M1733.331,1921.4a2.561,2.561,0,0,0,2.845,2.606,3.435,3.435,0,0,0,2.362-.886l1.006,1.489a5.289,5.289,0,0,1-3.368,1.095c-3.018,0-4.813-1.84-4.813-4.729s1.879-4.725,4.374-4.725a3.956,3.956,0,0,1,4.113,4.224c0,.417-.04.917-.04.917Zm.11-1.551h4.6a2.105,2.105,0,0,0-2.228-1.974l-.027,0A2.389,2.389,0,0,0,1733.441,1919.852Z"/><path class="a" d="M1748.036,1925.56v-4.755c0-1.95-.528-2.867-1.968-2.867s-2.389,1.329-2.389,2.978v4.635h-1.968v-9.134h1.968v1.33a3.1,3.1,0,0,1,2.717-1.467c2.6,0,3.652,1.64,3.652,4.507v4.769Z"/><path class="a" d="M1753.81,1921.4a2.561,2.561,0,0,0,2.846,2.606,3.437,3.437,0,0,0,2.362-.886l1.006,1.489a5.291,5.291,0,0,1-3.368,1.095c-3.019,0-4.813-1.84-4.813-4.729s1.879-4.725,4.374-4.725a3.956,3.956,0,0,1,4.113,4.224c0,.417-.04.917-.04.917Zm.111-1.551h4.6a2.106,2.106,0,0,0-2.229-1.974l-.022,0A2.39,2.39,0,0,0,1753.921,1919.852Z"/><path class="a" d="M1766.525,1918.057c-2.078,0-2.366,1.618-2.366,3.546v3.957h-1.968v-9.143h1.968v1.379a2.365,2.365,0,0,1,2.322-1.534,4.351,4.351,0,0,1,.523.022c-.129.634-.173,1.139-.328,1.773Z"/><path class="a" d="M1767.638,1927.838l1.094-1.467a4.927,4.927,0,0,0,2.628.856c1.135,0,2.624-.155,2.624-2.739v-.807a3.438,3.438,0,0,1-2.624,1.113,3.887,3.887,0,0,1-4.095-4.22,4.171,4.171,0,0,1,4.53-4.29,6.167,6.167,0,0,1,4.135,1.49v6.408c0,4.029-2.141,4.813-4.4,4.813A6.3,6.3,0,0,1,1767.638,1927.838Zm3.94-4.791c1.467,0,2.406-1.183,2.406-3.151v-1.36a3.545,3.545,0,0,0-2.1-.523,2.481,2.481,0,0,0-2.6,2.355,2.411,2.411,0,0,0,0,.269A2.138,2.138,0,0,0,1771.578,1923.047Z"/><path class="a" d="M1777.946,1928.645l2.6-4.791-3.741-7.437h2.216l2.584,5.469,2.579-5.469h2.163l-6.32,12.578Z"/></g></svg>