<svg xmlns="http://www.w3.org/2000/svg" width="116.633" height="153.749" viewBox="0 0 116.633 153.749"><defs><style>.a{fill:#fff;}</style></defs><g transform="translate(-132.608 -1775.913)"><path class="a" d="M135.775,1921.074v4.038h-3.167v-12.13h3.167v1.912a3.347,3.347,0,0,1,3.073-2.117,3.216,3.216,0,0,1,.854,0c-.12.581-.316,2.3-.436,2.868C136.176,1915.594,135.775,1917.856,135.775,1921.074Z"/><path class="a" d="M143.6,1919.768c.1,1.972,1.6,2.963,3.517,2.963a4.818,4.818,0,0,0,3.167-1.136l1.477,2.271a7.686,7.686,0,0,1-4.7,1.451c-4.063,0-6.556-2.441-6.556-6.3s2.561-6.274,5.976-6.274a5.352,5.352,0,0,1,5.549,5.148,5.444,5.444,0,0,1-.009.571c0,.641-.06,1.332-.06,1.332Zm.119-2.347h5.515a2.561,2.561,0,0,0-2.732-2.322,2.843,2.843,0,0,0-2.8,2.322Z"/><path class="a" d="M153.77,1919.162c0-3.517,2.211-6.359,5.8-6.359a7.44,7.44,0,0,1,3.167.785v-6.061l3.158-.674v18.259h-3.158v-2.091a4.183,4.183,0,0,1-3.671,2.27C155.656,1925.291,153.77,1922.731,153.77,1919.162Zm5.924,3.415c1.793,0,3.048-1.707,3.048-4.67v-1.656a4.332,4.332,0,0,0-2.612-.853c-2.032,0-3.133,1.707-3.133,3.8,0,1.913.776,3.415,2.7,3.415Z"/><path class="a" d="M185.124,1923.046a13.721,13.721,0,0,1-7.222,2.245c-5.489,0-9.492-3.286-9.492-9.236s4.183-9.194,9.663-9.194a12.336,12.336,0,0,1,6.274,1.767l-.264,3.005a11.1,11.1,0,0,0-5.831-1.912,5.954,5.954,0,0,0-6.24,6.351c0,4.123,2.672,6.445,5.976,6.445a9.255,9.255,0,0,0,3.517-.785V1915.2H185.1Z"/><path class="a" d="M193.968,1912.777a8.853,8.853,0,0,1,5.83,2.057v10.244h-3.167v-2.117a4.07,4.07,0,0,1-3.593,2.33c-3.415,0-5.4-2.56-5.4-6.12S189.9,1912.777,193.968,1912.777Zm-.316,9.834c1.853,0,3.014-1.707,3.014-4.669v-1.887a4.547,4.547,0,0,0-2.561-.666c-2.177,0-3.253,1.708-3.253,3.8C190.861,1921.109,191.68,1922.611,193.652,1922.611Z"/><path class="a" d="M202.726,1925.112v-17.619l3.193-.64v18.259Z"/><path class="a" d="M214.6,1912.777a8.855,8.855,0,0,1,5.83,2.057v10.244H217.3v-2.117a4.071,4.071,0,0,1-3.594,2.33c-3.414,0-5.395-2.56-5.395-6.12S210.537,1912.777,214.6,1912.777Zm-.316,9.834c1.852,0,3.013-1.707,3.013-4.669v-1.887a4.545,4.545,0,0,0-2.561-.666c-2.177,0-3.252,1.708-3.252,3.8C211.493,1921.109,212.313,1922.611,214.285,1922.611Z"/><path class="a" d="M230.564,1918.548c1.477,1.835,3.739,4.678,5.224,6.564h-3.867l-3.039-4.473-3.107,4.473h-3.893l5.122-6.65-4.268-5.48h3.833l2.236,3.218,2.2-3.218h4.037Z"/><path class="a" d="M237.606,1929.116l3.415-6.36-4.985-9.774H239.6l3.073,6.616,3.082-6.616h3.482l-8.391,16.68Z"/><path class="a" d="M238.742,1841.259q-2.262-4.542-4.909-8.861,2.639-4.269,4.909-8.861a74.707,74.707,0,0,0,6.829-20.069,34.633,34.633,0,0,0,.273-11.174,20.5,20.5,0,0,0-1.707-5.72,17.219,17.219,0,0,0-3.594-5.07,16.54,16.54,0,0,0-5.2-3.278,19.777,19.777,0,0,0-5.677-1.332,32.677,32.677,0,0,0-10.8,1.016,71.39,71.39,0,0,0-18.823,8.237c-2.356,1.392-4.635,2.886-6.872,4.422-1.058-.7-2.108-1.4-3.184-2.074q-4.431-2.741-9.134-5.122a75.111,75.111,0,0,0-20.078-6.863,34.838,34.838,0,0,0-11.157-.273,20.2,20.2,0,0,0-5.728,1.707,15.9,15.9,0,0,0-8.348,8.784,19.494,19.494,0,0,0-1.324,5.651,32.771,32.771,0,0,0,1.016,10.841,71.332,71.332,0,0,0,8.2,18.883c2.108,3.577,4.43,7,6.829,10.329a117.231,117.231,0,0,0-6.829,10.329,71.412,71.412,0,0,0-8.2,18.891,32.787,32.787,0,0,0-1.016,10.807,19.527,19.527,0,0,0,1.324,5.677,16.929,16.929,0,0,0,3.286,5.2,17.137,17.137,0,0,0,5.062,3.585,20.5,20.5,0,0,0,5.728,1.707,35.1,35.1,0,0,0,11.157-.332,74.789,74.789,0,0,0,20.069-6.881q4.7-2.347,9.134-5.07c1.076-.675,2.126-1.375,3.185-2.075,2.236,1.537,4.515,3.031,6.871,4.422a71.345,71.345,0,0,0,18.892,8.195,32.7,32.7,0,0,0,10.8,1.016,19.49,19.49,0,0,0,5.677-1.323,16.87,16.87,0,0,0,5.2-3.278,17.219,17.219,0,0,0,3.593-5.071,20.478,20.478,0,0,0,1.708-5.728,34.661,34.661,0,0,0-.273-11.174A74.806,74.806,0,0,0,238.742,1841.259Zm-37.159-52.3a68,68,0,0,1,18.353-6.223,28.167,28.167,0,0,1,9.134-.145,11.956,11.956,0,0,1,7.059,3.414,11.824,11.824,0,0,1,2.783,7.145,26.9,26.9,0,0,1-.913,8.725,66.149,66.149,0,0,1-7.521,17.175q-1.3,2.2-2.706,4.354-3.072-4.107-6.419-7.991c-2.271-2.6-4.635-5.121-7.051-7.58s-4.977-4.78-7.581-7.051-5.343-4.388-8.118-6.471c-1-.734-2.023-1.442-3.047-2.151C197.536,1791.022,199.551,1789.955,201.583,1788.956Zm-9.459,73.166q-2.91,2.33-5.916,4.541c-.512-.367-1.024-.734-1.528-1.11-2.663-1.971-5.267-4.046-7.785-6.214s-4.925-4.456-7.3-6.778-4.6-4.806-6.786-7.307-4.268-5.122-6.215-7.777c-1.22-1.656-2.381-3.338-3.508-5.053,1.127-1.708,2.288-3.415,3.508-5.046q2.972-3.995,6.215-7.776c2.185-2.51,4.465-4.926,6.786-7.307s4.8-4.6,7.3-6.778,5.122-4.269,7.785-6.223l1.528-1.1q3.006,2.2,5.916,4.542a180.264,180.264,0,0,1,14.358,12.907,177.3,177.3,0,0,1,12.933,14.367c.64.794,1.272,1.587,1.9,2.39-.623.8-1.255,1.605-1.9,2.4a177.43,177.43,0,0,1-12.933,14.366A180.349,180.349,0,0,1,192.124,1862.122Zm-41.086-32.908q-2.561-4.269-4.763-8.673a68.018,68.018,0,0,1-6.189-18.354,28.151,28.151,0,0,1-.179-9.1,10.6,10.6,0,0,1,10.628-9.843,27.19,27.19,0,0,1,8.69.913,66.13,66.13,0,0,1,17.166,7.521c2.775,1.631,5.481,3.415,8.127,5.276-.341.264-.683.52-1.016.793a186.847,186.847,0,0,0-14.956,13.48,191.218,191.218,0,0,0-13.479,14.947c-1.109,1.391-2.211,2.791-3.286,4.217C151.533,1830,151.277,1829.606,151.038,1829.214Zm25.353,43.911a66.031,66.031,0,0,1-17.166,7.512,27.189,27.189,0,0,1-8.69.922,10.617,10.617,0,0,1-10.551-9.842,28.158,28.158,0,0,1,.179-9.1,67.991,67.991,0,0,1,6.1-18.353q2.178-4.431,4.764-8.673c.239-.393.495-.786.742-1.178,1.076,1.425,2.177,2.825,3.287,4.208a194.177,194.177,0,0,0,28.443,28.443c.333.274.675.53,1.016.794C181.872,1869.719,179.166,1871.512,176.391,1873.125Zm62.487-1.494a11.781,11.781,0,0,1-2.783,7.137,11.944,11.944,0,0,1-7.059,3.414,28.155,28.155,0,0,1-9.1-.17,68.033,68.033,0,0,1-18.354-6.2c-2.031-1-4.046-2.074-6.026-3.2,1.024-.708,2.049-1.417,3.047-2.151q4.166-3.116,8.084-6.5c2.561-2.271,5.122-4.644,7.581-7.051s4.78-4.977,7.051-7.581,4.37-5.25,6.419-7.99q1.408,2.151,2.706,4.354a66.093,66.093,0,0,1,7.521,17.166A26.988,26.988,0,0,1,238.878,1871.631Z"/><path class="a" d="M180.2,1818.808c-3.628,2.271-3.628,24.918,0,27.18s21.776-9.057,21.776-13.59S183.827,1816.546,180.2,1818.808Z"/></g></svg>