<svg xmlns="http://www.w3.org/2000/svg" width="160.744" height="147.635" viewBox="0 0 160.744 147.635"><defs><style>.a{fill:#fff;}</style></defs><g transform="translate(-1257.61 -1778.365)"><path class="a" d="M1285.606,1925.783v-11.526q1.419-.15,4.01-.151a4.341,4.341,0,0,1,2.964.769,3.927,3.927,0,0,1,.81,2.873,4.062,4.062,0,0,1-.777,2.889,3.954,3.954,0,0,1-2.8.769,21.909,21.909,0,0,1-2.539-.15v4.527Zm1.671-5.814h2.3a2.4,2.4,0,0,0,1.67-.467,3.622,3.622,0,0,0,0-3.508,2.356,2.356,0,0,0-1.67-.451q-1.67,0-2.3.017Z"/><path class="a" d="M1296.982,1914.089v3.158a10.3,10.3,0,0,1-.118,1.586,6.2,6.2,0,0,1,3.558-1.42,2.195,2.195,0,0,1,1.637.577,2.293,2.293,0,0,1,.568,1.679v6.114h-1.621v-5.646a1.811,1.811,0,0,0-.225-1.061.967.967,0,0,0-.81-.292,3.26,3.26,0,0,0-1.294.284,14.844,14.844,0,0,0-1.713.918v5.8h-1.62v-11.694Z"/><path class="a" d="M1305.585,1918.4a5.072,5.072,0,0,1,6.013,0,4.951,4.951,0,0,1,.885,3.324,4.882,4.882,0,0,1-.885,3.307,5.149,5.149,0,0,1-6.013,0,4.877,4.877,0,0,1-.886-3.307A4.946,4.946,0,0,1,1305.585,1918.4Zm4.744,1a2.755,2.755,0,0,0-3.475,0,4.079,4.079,0,0,0-.469,2.323,4.031,4.031,0,0,0,.469,2.305,2.752,2.752,0,0,0,3.475,0,4.051,4.051,0,0,0,.467-2.305A4.1,4.1,0,0,0,1310.329,1919.4Z"/><path class="a" d="M1319.581,1922.492h-3.657a2.4,2.4,0,0,0,.66,1.7,2.862,2.862,0,0,0,1.778.434,26.734,26.734,0,0,0,2.856-.2l.152,1.069a8.365,8.365,0,0,1-3.224.484,3.988,3.988,0,0,1-3.033-.968,6.69,6.69,0,0,1-.017-6.649,3.8,3.8,0,0,1,2.9-.953,4.343,4.343,0,0,1,2.723.686,2.477,2.477,0,0,1,.853,2.054Q1321.57,1922.493,1319.581,1922.492Zm-3.675-1.253h3.242c.534,0,.8-.361.8-1.086a1.283,1.283,0,0,0-.426-1.06,2.491,2.491,0,0,0-1.444-.309,2.216,2.216,0,0,0-1.672.509A3.072,3.072,0,0,0,1315.906,1921.239Z"/><path class="a" d="M1324.978,1917.631l.1,1.253a6.061,6.061,0,0,1,3.608-1.471,2.2,2.2,0,0,1,1.646.577,2.32,2.32,0,0,1,.559,1.679v6.114h-1.621v-5.646a1.811,1.811,0,0,0-.225-1.061.967.967,0,0,0-.81-.292,3.091,3.091,0,0,0-1.27.284,18.677,18.677,0,0,0-1.738.935v5.78h-1.619v-8.152Z"/><path class="a" d="M1333.83,1914.157h.769a.413.413,0,0,1,.468.467v.936a.421.421,0,0,1-.468.484h-.769c-.312,0-.467-.161-.467-.484v-.936A.412.412,0,0,1,1333.83,1914.157Zm1.186,11.626h-1.6v-8.152h1.6Z"/><path class="a" d="M1340.947,1922.175h-.318l-2.205,3.608h-1.754l2.673-4.21-2.473-3.942h1.738l2.005,3.29h.35l1.989-3.29h1.736l-2.456,3.942,2.673,4.21h-1.753Z"/><path class="a" d="M1351.187,1922.175h-5.078v-1.237h5.078Z"/><path class="a" d="M1361.995,1925.783h-1.789l-.984-3.592a1.442,1.442,0,0,0-1.454-1.152l-2.373-.017v4.761h-1.653v-11.526q1.419-.15,4.026-.151a4.66,4.66,0,0,1,2.949.719,3.288,3.288,0,0,1,.86,2.623,3.643,3.643,0,0,1-.493,2.088,2.235,2.235,0,0,1-1.63.851v.084a2.114,2.114,0,0,1,1.454,1.67Zm-6.6-6.181h2.339a2.588,2.588,0,0,0,1.7-.442,2.185,2.185,0,0,0,.458-1.612,2.122,2.122,0,0,0-.458-1.587,2.568,2.568,0,0,0-1.7-.418c-1.136,0-1.914.006-2.339.017Z"/><path class="a" d="M1371.918,1915.744h-3.659v10.039h-1.686v-10.039h-3.626v-1.487h8.971Z"/><path class="a" d="M1377.7,1914.04q2.571,0,3.592,1.3t1.018,4.678q0,3.374-1.018,4.677t-3.592,1.3a4.29,4.29,0,0,1-3.574-1.3q-1.019-1.3-1.019-4.677t1.019-4.678A4.289,4.289,0,0,1,1377.7,1914.04Zm2.239,2.455a3.062,3.062,0,0,0-4.47,0,10.5,10.5,0,0,0,0,7.049,3.062,3.062,0,0,0,4.47,0,10.376,10.376,0,0,0,0-7.049Z"/><path class="a" d="M1388.8,1921.022l-2.338-.651a2.917,2.917,0,0,1-1.762-1.128,3.831,3.831,0,0,1-.527-2.147,5,5,0,0,1,.21-1.595,1.692,1.692,0,0,1,.726-.927,3.1,3.1,0,0,1,1.153-.417,11.242,11.242,0,0,1,1.7-.1,14.84,14.84,0,0,1,3.474.351l-.1,1.219q-2.422-.082-3.307-.083a3.835,3.835,0,0,0-1.736.259q-.437.259-.435,1.345a1.818,1.818,0,0,0,.309,1.2,2.131,2.131,0,0,0,1.078.551l2.288.636a3.034,3.034,0,0,1,1.812,1.135,3.805,3.805,0,0,1,.527,2.138,3,3,0,0,1-.869,2.539,5.4,5.4,0,0,1-3.057.635,19.7,19.7,0,0,1-3.626-.334l.117-1.236q2.609.084,3.542.083a3.341,3.341,0,0,0,1.745-.333,1.629,1.629,0,0,0,.444-1.371,1.894,1.894,0,0,0-.3-1.227A2.132,2.132,0,0,0,1388.8,1921.022Z"/><path class="a" d="M1351.647,1793.873c-4.032,0-7.754-2.172-7.754-7.754s3.722-7.754,7.754-7.754h21.09c5.738,0,9.925,1.086,13.8,5.739,3.257,3.876,3.412,6.823,3.412,11.63v24.5c0,8.063,2.017,10.7,10.236,10.7H1410.6c4.032,0,7.754,2.172,7.754,7.754s-3.722,7.753-7.754,7.753h-10.414c-8.219,0-10.236,2.636-10.236,10.7v24.5c0,4.807-.155,7.754-3.412,11.63-3.876,4.653-8.063,5.738-13.8,5.738h-21.09c-4.032,0-7.754-2.171-7.754-7.753s3.722-7.755,7.754-7.755h22.8v-27.758c0-6.669,1.4-12.251,6.2-17.058-4.652-5.118-6.2-10.7-6.2-17.214v-27.6Z"/><path class="a" d="M1324.317,1883.507c4.032,0,7.754,2.172,7.754,7.754s-3.722,7.753-7.754,7.753h-21.09c-5.738,0-9.925-1.085-13.8-5.738-3.257-3.876-3.411-6.823-3.411-11.63v-24.5c0-8.064-2.017-10.7-10.236-10.7h-10.414c-4.032,0-7.754-2.171-7.754-7.753s3.722-7.754,7.754-7.754h10.414c8.219,0,10.236-2.635,10.236-10.7v-24.5c0-4.807.154-7.754,3.411-11.63,3.877-4.653,8.064-5.739,13.8-5.739h21.09c4.032,0,7.754,2.172,7.754,7.754s-3.722,7.755-7.754,7.755h-22.8v27.757c0,6.67-1.4,12.252-6.2,17.059,4.652,5.118,6.2,10.7,6.2,17.214v27.6Z"/><path class="a" d="M1274.3,1877.393h-8.937c-4.032,0-7.754-2.171-7.754-7.753s3.722-7.754,7.754-7.754h8.937Z"/><path class="a" d="M1274.3,1815.494h-8.937c-4.032,0-7.754-2.172-7.754-7.754s3.722-7.754,7.754-7.754h8.937Z"/><path class="a" d="M1401.663,1799.986h8.937c4.032,0,7.754,2.172,7.754,7.754s-3.722,7.754-7.754,7.754h-8.937Z"/><path class="a" d="M1401.663,1861.886h8.937c4.032,0,7.754,2.172,7.754,7.754s-3.722,7.753-7.754,7.753h-8.937Z"/></g></svg>