<svg xmlns="http://www.w3.org/2000/svg" width="144" height="154.983" viewBox="0 0 144 154.983"><defs><style>.a,.b{fill:#fff;}.a{font-size:29.305px;font-family:Serenity-DemiBold, Serenity;font-weight:300;letter-spacing:-0.006em;}</style></defs><g transform="translate(-515.033 -1775.626)"><text class="a" transform="translate(515.033 1924.609)"><tspan x="0" y="0">redGuardian</tspan></text><path class="b" d="M625.138,1819.175a34.031,34.031,0,0,0-62.628,12.186h0a33.9,33.9,0,0,0-.459,5.534,34.822,34.822,0,0,0,6.88,20.432,49.282,49.282,0,0,0,13.835,12.765,211.079,211.079,0,0,0,21.992,11.265c7.175,3.263,12.866,5.607,12.9,5.624l7.458,3.072-.113-8.065c0-.018-.111-7.894-.222-17.265s-.222-20.227-.222-26.086c0-.469,0-.905,0-1.3l.023-5.485-23.837.633.283,10.634,18.354-.487-.141-5.317-5.32-.023q0,.628,0,1.346c0,11.919.445,43.484.445,43.5l5.318-.075,2.026-4.918s-.333-.137-.961-.4c-2.2-.922-7.9-3.347-14.27-6.3a184.146,184.146,0,0,1-18.092-9.379,38.749,38.749,0,0,1-10.822-9.947,24.155,24.155,0,0,1-4.88-14.221,23.245,23.245,0,0,1,.317-3.8h0a23.4,23.4,0,0,1,43.054-8.374l9.078-5.545Z"/><path class="b" d="M572.995,1853.2l-17.1,20.072,4.049,3.45,3.45-4.048a49.066,49.066,0,1,1,63.644-74.7l3.45-4.048-4.049-3.45-18.648,21.887,8.1,6.9,22.1-25.935-4.048-3.45a59.7,59.7,0,1,0-77.444,90.89l4.049,3.45,20.554-24.122-8.1-6.9Z"/></g></svg>